<svg data-v-fde0c5aa="" xmlns="http://www.w3.org/2000/svg" viewBox="0 0 300 300" class="iconAboveSlogan"><!----><defs data-v-fde0c5aa=""><!----></defs><rect data-v-fde0c5aa="" fill="#FFD650" x="0" y="0" width="300px" height="300px" class="logo-background-square"></rect><defs data-v-fde0c5aa=""><!----></defs><g data-v-fde0c5aa="" id="d1c16a76-6b2e-4bd7-aa55-b8bbb072e599" fill="#ffffff" transform="matrix(5.9120676364729166,0,0,5.9120676364729166,10.889044454297581,135.33041406956463)"><path d="M0.77 16.46L0.77 16.46Q0.67 16.46 0.67 16.31L0.67 16.31L0.67 16.31Q0.67 16.18 0.81 16.18L0.81 16.18L1.20 16.18L1.20 16.18Q1.33 16.18 1.39 16.09L1.39 16.09L1.39 16.09Q1.46 15.99 1.46 15.83L1.46 15.83L1.46 9.00L1.46 9.00Q1.46 8.69 1.20 8.69L1.20 8.69L0.67 8.69L0.67 8.69Q0.50 8.69 0.50 8.54L0.50 8.54L0.50 8.54Q0.50 8.36 0.69 8.36L0.69 8.36L2.27 8.36L2.27 8.36Q2.48 8.36 2.48 8.58L2.48 8.58L2.48 9.41L2.48 9.41Q2.55 9.23 2.77 8.96L2.77 8.96L2.77 8.96Q2.98 8.69 3.35 8.48L3.35 8.48L3.35 8.48Q3.71 8.27 4.19 8.27L4.19 8.27L4.19 8.27Q4.76 8.27 5.31 8.60L5.31 8.60L5.31 8.60Q5.87 8.93 6.22 9.58L6.22 9.58L6.22 9.58Q6.58 10.23 6.58 11.13L6.58 11.13L6.58 11.13Q6.58 12.10 6.16 12.75L6.16 12.75L6.16 12.75Q5.74 13.41 5.13 13.72L5.13 13.72L5.13 13.72Q4.52 14.03 3.96 14.03L3.96 14.03L3.96 14.03Q3.15 14.03 2.48 13.33L2.48 13.33L2.48 15.96L2.48 15.96Q2.48 16.09 2.52 16.13L2.52 16.13L2.52 16.13Q2.56 16.17 2.66 16.17L2.66 16.17L3.26 16.17L3.26 16.17Q3.35 16.17 3.36 16.20L3.36 16.20L3.36 16.20Q3.37 16.23 3.37 16.31L3.37 16.31L3.37 16.31Q3.37 16.46 3.26 16.46L3.26 16.46L0.77 16.46ZM3.92 13.79L3.92 13.79Q4.70 13.79 5.06 13.14L5.06 13.14L5.06 13.14Q5.42 12.49 5.42 11.17L5.42 11.17L5.42 11.17Q5.42 9.86 5.08 9.22L5.08 9.22L5.08 9.22Q4.73 8.58 4.03 8.58L4.03 8.58L4.03 8.58Q3.42 8.58 3.01 9.00L3.01 9.00L3.01 9.00Q2.60 9.41 2.48 10.00L2.48 10.00L2.48 12.81L2.48 12.81Q2.95 13.79 3.92 13.79L3.92 13.79ZM9.23 14.20L9.23 14.20Q8.43 14.20 8.02 13.75L8.02 13.75L8.02 13.75Q7.60 13.30 7.60 12.67L7.60 12.67L7.60 12.67Q7.60 12.00 8.09 11.56L8.09 11.56L8.09 11.56Q8.57 11.13 9.31 10.93L9.31 10.93L9.31 10.93Q10.02 10.71 10.84 10.71L10.84 10.71L11.03 10.72L11.03 10.46L11.03 10.46Q11.03 9.88 10.96 9.49L10.96 9.49L10.96 9.49Q10.89 9.10 10.61 8.83L10.61 8.83L10.61 8.83Q10.33 8.55 9.76 8.55L9.76 8.55L9.76 8.55Q9.34 8.55 9.21 8.67L9.21 8.67L9.21 8.67Q9.09 8.78 9.09 8.90L9.09 8.90L9.09 8.90Q9.09 8.97 9.16 9.13L9.16 9.13L9.16 9.13Q9.23 9.28 9.23 9.35L9.23 9.35L9.23 9.35Q9.23 9.66 9.06 9.81L9.06 9.81L9.06 9.81Q8.90 10.00 8.62 10.00L8.62 10.00L8.62 10.00Q8.37 10.00 8.18 9.80L8.18 9.80L8.18 9.80Q8.08 9.69 8.04 9.59L8.04 9.59L8.04 9.59Q7.99 9.49 7.99 9.37L7.99 9.37L7.99 9.37Q7.99 9.10 8.18 8.88L8.18 8.88L8.18 8.88Q8.47 8.54 8.95 8.43L8.95 8.43L8.95 8.43Q9.44 8.32 9.87 8.32L9.87 8.32L9.87 8.32Q10.54 8.32 10.99 8.47L10.99 8.47L10.99 8.47Q11.44 8.62 11.70 8.96L11.70 8.96L11.70 8.96Q11.93 9.25 11.98 9.59L11.98 9.59L11.98 9.59Q12.03 9.93 12.03 10.72L12.03 10.72L12.03 12.89L12.03 12.89Q12.03 13.66 12.43 13.66L12.43 13.66L12.43 13.66Q12.66 13.66 12.88 13.44L12.88 13.44L12.88 13.44Q12.91 13.43 12.92 13.41L12.92 13.41L12.92 13.41Q12.94 13.38 12.96 13.38L12.96 13.38L12.96 13.38Q13.05 13.38 13.05 13.48L13.05 13.48L13.05 13.48Q13.05 13.68 12.73 13.91L12.73 13.91L12.73 13.91Q12.42 14.14 12.12 14.14L12.12 14.14L12.12 14.14Q11.76 14.14 11.49 13.87L11.49 13.87L11.49 13.87Q11.21 13.59 11.07 13.19L11.07 13.19L11.07 13.19Q11.03 13.19 11.01 13.17L11.01 13.17L11.01 13.17Q10.99 13.16 10.98 13.19L10.98 13.19L10.98 13.19Q10.37 14.20 9.23 14.20L9.23 14.20ZM9.63 13.71L9.63 13.71Q10.01 13.71 10.33 13.51L10.33 13.51L10.33 13.51Q10.65 13.31 10.84 13.03L10.84 13.03L10.84 13.03Q11.03 12.75 11.03 12.52L11.03 12.52L11.03 10.99L11.03 10.99Q10.63 10.99 10.16 11.05L10.16 11.05L10.16 11.05Q9.70 11.12 9.39 11.27L9.39 11.27L9.39 11.27Q8.92 11.51 8.77 11.91L8.77 11.91L8.77 11.91Q8.62 12.31 8.62 12.63L8.62 12.63L8.62 12.63Q8.62 12.99 8.85 13.35L8.85 13.35L8.85 13.35Q9.07 13.71 9.63 13.71L9.63 13.71ZM15.79 14.14L15.79 14.14Q15.08 14.14 14.53 13.75L14.53 13.75L14.53 13.75Q14.50 13.73 14.49 13.72L14.49 13.72L14.49 13.72Q14.48 13.71 14.45 13.71L14.45 13.71L14.35 13.75L14 14.03L14 14.03Q13.94 14.07 13.90 14.07L13.90 14.07L13.82 14.06L13.82 14.06Q13.73 14.01 13.73 13.93L13.73 13.93L13.73 12.49L13.73 12.49Q13.73 12.35 13.90 12.35L13.90 12.35L13.90 12.35Q13.96 12.35 13.99 12.38L13.99 12.38L13.99 12.38Q14.03 12.42 14.03 12.43L14.03 12.43L14.03 12.43Q14.31 13.10 14.80 13.47L14.80 13.47L14.80 13.47Q15.30 13.83 15.86 13.83L15.86 13.83L15.86 13.83Q16.35 13.83 16.78 13.57L16.78 13.57L16.78 13.57Q17.21 13.31 17.21 12.80L17.21 12.80L17.21 12.80Q17.21 12.29 16.83 12.05L16.83 12.05L16.83 12.05Q16.45 11.82 15.78 11.63L15.78 11.63L15.44 11.54L15.44 11.54Q14.76 11.30 14.27 10.93L14.27 10.93L14.27 10.93Q13.78 10.57 13.78 9.83L13.78 9.83L13.78 9.83Q13.78 9.09 14.34 8.67L14.34 8.67L14.34 8.67Q14.91 8.25 15.64 8.25L15.64 8.25L15.64 8.25Q15.90 8.25 16.11 8.31L16.11 8.31L16.11 8.31Q16.32 8.37 16.76 8.55L16.76 8.55L16.76 8.55Q16.77 8.55 16.78 8.57L16.78 8.57L16.78 8.57Q16.79 8.58 16.80 8.58L16.80 8.58L16.80 8.58Q16.86 8.58 16.90 8.54L16.90 8.54L17.04 8.41L17.04 8.41Q17.05 8.40 17.07 8.39L17.07 8.39L17.07 8.39Q17.09 8.37 17.12 8.37L17.12 8.37L17.25 8.37L17.25 8.37Q17.35 8.37 17.35 8.50L17.35 8.50L17.42 9.73L17.42 9.73Q17.42 9.87 17.30 9.87L17.30 9.87L17.30 9.87Q17.28 9.87 17.24 9.85L17.24 9.85L17.24 9.85Q17.21 9.83 17.19 9.80L17.19 9.80L17.19 9.80Q16.87 9.24 16.49 8.88L16.49 8.88L16.49 8.88Q16.11 8.51 15.57 8.51L15.57 8.51L15.57 8.51Q15.13 8.51 14.77 8.75L14.77 8.75L14.77 8.75Q14.41 8.99 14.41 9.45L14.41 9.45L14.41 9.45Q14.41 9.86 14.71 10.05L14.71 10.05L14.71 10.05Q15.01 10.25 15.72 10.49L15.72 10.49L15.72 10.49Q15.85 10.53 16.48 10.72L16.48 10.72L16.48 10.72Q17.11 10.91 17.46 11.31L17.46 11.31L17.46 11.31Q17.82 11.72 17.82 12.35L17.82 12.35L17.82 12.35Q17.82 12.96 17.51 13.37L17.51 13.37L17.51 13.37Q17.21 13.78 16.74 13.96L16.74 13.96L16.74 13.96Q16.28 14.14 15.79 14.14L15.79 14.14ZM20.64 14.14L20.64 14.14Q20.20 14.14 19.79 13.93L19.79 13.93L19.79 13.93Q19.38 13.72 19.38 13.10L19.38 13.10L19.38 8.72L18.61 8.72L18.61 8.72Q18.55 8.72 18.52 8.68L18.52 8.68L18.52 8.68Q18.48 8.64 18.48 8.58L18.48 8.58L18.48 8.58Q18.48 8.47 18.59 8.47L18.59 8.47L18.59 8.47Q19.17 8.33 19.54 7.85L19.54 7.85L19.54 7.85Q19.92 7.36 19.92 6.38L19.92 6.38L19.92 6.38Q19.92 6.31 19.97 6.26L19.97 6.26L19.97 6.26Q20.02 6.20 20.09 6.20L20.09 6.20L20.22 6.20L20.22 6.20Q20.29 6.20 20.33 6.26L20.33 6.26L20.33 6.26Q20.37 6.31 20.37 6.38L20.37 6.38L20.37 8.36L21.98 8.36L21.98 8.36Q22.08 8.36 22.08 8.50L22.08 8.50L22.08 8.58L22.08 8.58Q22.08 8.72 21.98 8.72L21.98 8.72L20.37 8.72L20.37 12.74L20.37 12.74Q20.37 13.26 20.59 13.43L20.59 13.43L20.59 13.43Q20.80 13.59 21.13 13.59L21.13 13.59L21.13 13.59Q21.64 13.59 22.06 12.94L22.06 12.94L22.06 12.94Q22.13 12.81 22.18 12.81L22.18 12.81L22.18 12.81Q22.36 12.81 22.36 12.96L22.36 12.96L22.36 12.96Q22.36 13.03 22.32 13.10L22.32 13.10L22.32 13.10Q21.98 13.73 21.55 13.94L21.55 13.94L21.55 13.94Q21.11 14.14 20.64 14.14L20.64 14.14ZM24.71 14.20L24.71 14.20Q23.91 14.20 23.50 13.75L23.50 13.75L23.50 13.75Q23.09 13.30 23.09 12.67L23.09 12.67L23.09 12.67Q23.09 12.00 23.57 11.56L23.57 11.56L23.57 11.56Q24.05 11.13 24.79 10.93L24.79 10.93L24.79 10.93Q25.51 10.71 26.32 10.71L26.32 10.71L26.52 10.72L26.52 10.46L26.52 10.46Q26.52 9.88 26.45 9.49L26.45 9.49L26.45 9.49Q26.38 9.10 26.10 8.83L26.10 8.83L26.10 8.83Q25.82 8.55 25.24 8.55L25.24 8.55L25.24 8.55Q24.82 8.55 24.70 8.67L24.70 8.67L24.70 8.67Q24.57 8.78 24.57 8.90L24.57 8.90L24.57 8.90Q24.57 8.97 24.64 9.13L24.64 9.13L24.64 9.13Q24.71 9.28 24.71 9.35L24.71 9.35L24.71 9.35Q24.71 9.66 24.54 9.81L24.54 9.81L24.54 9.81Q24.39 10.00 24.11 10.00L24.11 10.00L24.11 10.00Q23.86 10.00 23.66 9.80L23.66 9.80L23.66 9.80Q23.56 9.69 23.52 9.59L23.52 9.59L23.52 9.59Q23.48 9.49 23.48 9.37L23.48 9.37L23.48 9.37Q23.48 9.10 23.66 8.88L23.66 8.88L23.66 8.88Q23.95 8.54 24.44 8.43L24.44 8.43L24.44 8.43Q24.92 8.32 25.35 8.32L25.35 8.32L25.35 8.32Q26.03 8.32 26.47 8.47L26.47 8.47L26.47 8.47Q26.92 8.62 27.19 8.96L27.19 8.96L27.19 8.96Q27.41 9.25 27.46 9.59L27.46 9.59L27.46 9.59Q27.51 9.93 27.51 10.72L27.51 10.72L27.51 12.89L27.51 12.89Q27.51 13.66 27.92 13.66L27.92 13.66L27.92 13.66Q28.14 13.66 28.36 13.44L28.36 13.44L28.36 13.44Q28.39 13.43 28.41 13.41L28.41 13.41L28.41 13.41Q28.42 13.38 28.45 13.38L28.45 13.38L28.45 13.38Q28.53 13.38 28.53 13.48L28.53 13.48L28.53 13.48Q28.53 13.68 28.22 13.91L28.22 13.91L28.22 13.91Q27.90 14.14 27.61 14.14L27.61 14.14L27.61 14.14Q27.24 14.14 26.97 13.87L26.97 13.87L26.97 13.87Q26.70 13.59 26.56 13.19L26.56 13.19L26.56 13.19Q26.52 13.19 26.49 13.17L26.49 13.17L26.49 13.17Q26.47 13.16 26.46 13.19L26.46 13.19L26.46 13.19Q25.86 14.20 24.71 14.20L24.71 14.20ZM25.12 13.71L25.12 13.71Q25.49 13.71 25.82 13.51L25.82 13.51L25.82 13.51Q26.14 13.31 26.33 13.03L26.33 13.03L26.33 13.03Q26.52 12.75 26.52 12.52L26.52 12.52L26.52 10.99L26.52 10.99Q26.11 10.99 25.65 11.05L25.65 11.05L25.65 11.05Q25.19 11.12 24.88 11.27L24.88 11.27L24.88 11.27Q24.40 11.51 24.25 11.91L24.25 11.91L24.25 11.91Q24.11 12.31 24.11 12.63L24.11 12.63L24.11 12.63Q24.11 12.99 24.33 13.35L24.33 13.35L24.33 13.35Q24.56 13.71 25.12 13.71L25.12 13.71ZM29.43 14.01L29.43 14.01Q29.33 14.01 29.27 13.96L29.27 13.96L29.27 13.96Q29.22 13.90 29.22 13.82L29.22 13.82L29.22 13.82Q29.22 13.73 29.27 13.68L29.27 13.68L29.27 13.68Q29.33 13.62 29.43 13.62L29.43 13.62L29.43 13.62Q29.90 13.62 30.25 13.28L30.25 13.28L30.25 13.28Q30.60 12.94 30.60 12.45L30.60 12.45L30.60 5.29L30.60 5.29Q30.60 5.10 30.48 4.96L30.48 4.96L30.48 4.96Q30.35 4.82 30.16 4.82L30.16 4.82L29.43 4.82L29.43 4.82Q29.34 4.82 29.28 4.75L29.28 4.75L29.28 4.75Q29.22 4.69 29.22 4.61L29.22 4.61L29.22 4.61Q29.22 4.52 29.27 4.47L29.27 4.47L29.27 4.47Q29.33 4.41 29.43 4.41L29.43 4.41L32.03 4.41L32.03 4.41Q32.16 4.41 32.20 4.52L32.20 4.52L34.82 11.89L37.35 4.52L37.35 4.52Q37.39 4.41 37.52 4.41L37.52 4.41L39.90 4.41L39.90 4.41Q39.98 4.41 40.03 4.47L40.03 4.47L40.03 4.47Q40.08 4.52 40.08 4.61L40.08 4.61L40.08 4.61Q40.08 4.69 40.03 4.75L40.03 4.75L40.03 4.75Q39.98 4.82 39.90 4.82L39.90 4.82L39.27 4.82L39.27 4.82Q39.12 4.82 38.99 4.93L38.99 4.93L38.99 4.93Q38.86 5.04 38.86 5.19L38.86 5.19L38.86 13.24L38.86 13.24Q38.86 13.38 38.99 13.50L38.99 13.50L38.99 13.50Q39.12 13.62 39.27 13.62L39.27 13.62L39.90 13.62L39.90 13.62Q39.98 13.62 40.03 13.68L40.03 13.68L40.03 13.68Q40.08 13.73 40.08 13.82L40.08 13.82L40.08 13.82Q40.08 13.90 40.03 13.96L40.03 13.96L40.03 13.96Q39.98 14.01 39.90 14.01L39.90 14.01L36.48 14.01L36.48 14.01Q36.41 14.01 36.36 13.96L36.36 13.96L36.36 13.96Q36.32 13.90 36.32 13.82L36.32 13.82L36.32 13.82Q36.32 13.73 36.36 13.68L36.36 13.68L36.36 13.68Q36.41 13.62 36.48 13.62L36.48 13.62L37.11 13.62L37.11 13.62Q37.25 13.62 37.37 13.51L37.37 13.51L37.37 13.51Q37.48 13.40 37.48 13.24L37.48 13.24L37.48 5.33L34.52 13.90L34.52 13.90Q34.48 14.01 34.36 14.01L34.36 14.01L34.30 14.01L34.30 14.01Q34.17 14.01 34.13 13.90L34.13 13.90L30.98 5.11L30.98 12.45L30.98 12.45Q30.98 12.94 31.32 13.28L31.32 13.28L31.32 13.28Q31.67 13.62 32.16 13.62L32.16 13.62L32.16 13.62Q32.24 13.62 32.31 13.68L32.31 13.68L32.31 13.68Q32.38 13.73 32.38 13.82L32.38 13.82L32.38 13.82Q32.38 13.90 32.31 13.96L32.31 13.96L32.31 13.96Q32.24 14.01 32.16 14.01L32.16 14.01L29.43 14.01ZM43.81 14.14L43.81 14.14Q43.06 14.14 42.43 13.74L42.43 13.74L42.43 13.74Q41.79 13.34 41.42 12.67L41.42 12.67L41.42 12.67Q41.05 12.00 41.05 11.21L41.05 11.21L41.05 11.21Q41.05 10.42 41.42 9.72L41.42 9.72L41.42 9.72Q41.79 9.03 42.43 8.62L42.43 8.62L42.43 8.62Q43.06 8.22 43.81 8.22L43.81 8.22L43.81 8.22Q44.55 8.22 45.18 8.62L45.18 8.62L45.18 8.62Q45.82 9.03 46.19 9.72L46.19 9.72L46.19 9.72Q46.56 10.42 46.56 11.21L46.56 11.21L46.56 11.21Q46.56 12.00 46.19 12.67L46.19 12.67L46.19 12.67Q45.82 13.34 45.18 13.74L45.18 13.74L45.18 13.74Q44.55 14.14 43.81 14.14L43.81 14.14ZM43.81 13.89L43.81 13.89Q44.51 13.89 44.91 13.15L44.91 13.15L44.91 13.15Q45.32 12.42 45.32 11.21L45.32 11.21L45.32 11.21Q45.32 10.00 44.91 9.24L44.91 9.24L44.91 9.24Q44.51 8.48 43.81 8.48L43.81 8.48L43.81 8.48Q43.12 8.48 42.71 9.24L42.71 9.24L42.71 9.24Q42.31 10.00 42.31 11.21L42.31 11.21L42.31 11.21Q42.31 12.42 42.71 13.15L42.71 13.15L42.71 13.15Q43.12 13.89 43.81 13.89L43.81 13.89ZM43.89 7.60L43.89 7.60Q43.85 7.56 42.41 6.43L42.41 6.43L42.41 6.43Q42.01 6.13 41.94 6.06L41.94 6.06L41.94 6.06Q41.66 5.84 41.57 5.69L41.57 5.69L41.57 5.69Q41.47 5.54 41.47 5.31L41.47 5.31L41.47 5.31Q41.47 5.12 41.62 4.96L41.62 4.96L41.62 4.96Q41.78 4.80 42 4.80L42 4.80L42 4.80Q42.25 4.80 42.43 4.94L42.43 4.94L42.43 4.94Q42.62 5.07 42.81 5.39L42.81 5.39L42.81 5.39Q43.29 6.23 44.07 7.43L44.07 7.43L43.89 7.60Z"></path></g><defs data-v-fde0c5aa=""><!----></defs><g data-v-fde0c5aa="" id="97276c56-38ea-4e25-9939-dcddfcebd1c1" stroke="#99472D" fill="none" transform="matrix(0.6699577184972931,0,0,0.6699577184972931,80.65398427725151,29.06362849173832)"><path d="M96.834 156.214c-.417-1.538-1.686-2.682-3.424-3.6.136-3.156.425-16.961-4.767-19.587-2.619-1.325-6.149.449-10.507 5.254-.943-3.161-2.363-5.036-4.239-5.545-2.654-.717-6.14 1.378-10.371 6.235-.652-3.3-1.341-4.861-3.482-5.944-2.617-1.325-6.147.449-10.507 5.254-.942-3.161-2.361-5.036-4.237-5.545-2.616-.706-6.039 1.322-10.189 6.03-.667-2.9-1.675-4.737-3.656-5.739-2.618-1.325-6.148.449-10.507 5.254-.943-3.161-2.363-5.036-4.238-5.545-3.027-.817-7.134 2.021-12.199 8.444-1.271 1.611-1.723 3.016-1.381 4.292.381 1.422 1.74 2.439 3.625 3.265-.028 1.116-.348 17.783 5.465 20.543a3.929 3.929 0 0 0 1.711.384c2.365 0 5.22-1.973 8.52-5.88 1.053 3.32 2.556 5.269 4.486 5.76.317.081.646.121.984.121 2.467 0 5.47-2.146 8.952-6.399.772 3.215 1.796 4.998 3.937 6.015a3.935 3.935 0 0 0 1.711.384c2.365 0 5.221-1.973 8.521-5.88 1.053 3.32 2.556 5.269 4.486 5.76.317.081.646.121.984.121 2.467 0 5.473-2.148 8.958-6.406.773 3.219 1.797 5.004 3.938 6.021a3.94 3.94 0 0 0 1.712.384c2.365 0 5.22-1.973 8.52-5.88 1.053 3.32 2.556 5.269 4.486 5.76.317.081.646.121.984.121 2.638 0 5.89-2.454 9.686-7.315 1.846-2.369 2.514-4.375 2.038-6.137z"></path><path d="M85.108 170.665c-.422 0-.836-.051-1.231-.152-1.92-.488-3.463-2.102-4.601-4.806-3.066 3.332-5.745 4.957-8.158 4.957-.75 0-1.471-.162-2.142-.48-2.128-1.012-3.228-2.675-3.962-4.854-3.208 3.587-6 5.336-8.504 5.336-.422 0-.836-.051-1.231-.152-1.92-.488-3.463-2.102-4.6-4.806-3.068 3.332-5.746 4.957-8.16 4.957a4.96 4.96 0 0 1-2.141-.48c-2.128-1.011-3.227-2.671-3.961-4.848-3.205 3.582-5.996 5.329-8.498 5.329-.422 0-.836-.051-1.232-.152-1.919-.488-3.462-2.102-4.6-4.806-3.066 3.332-5.745 4.957-8.158 4.957-.75 0-1.471-.162-2.141-.481-1.071-.508-6.344-3.884-6.049-20.812-2.04-1-3.184-2.167-3.577-3.639-.429-1.604.081-3.294 1.562-5.17 4.756-6.031 8.656-8.962 11.928-8.962.452 0 .895.058 1.317.171 1.864.506 3.333 2.061 4.378 4.629 3.173-3.226 5.896-4.798 8.299-4.798.8 0 1.561.18 2.26.533 1.74.881 2.891 2.307 3.682 4.632 3.324-3.474 6.166-5.167 8.657-5.167.451 0 .894.058 1.315.171 1.864.506 3.332 2.06 4.378 4.628 3.173-3.225 5.897-4.797 8.298-4.797.8 0 1.561.18 2.26.533 2.021 1.022 2.942 2.478 3.574 4.75 3.37-3.553 6.25-5.285 8.771-5.285.452 0 .896.058 1.317.171 1.864.506 3.333 2.061 4.38 4.628 3.172-3.225 5.896-4.797 8.297-4.797.801 0 1.561.18 2.26.533 5.371 2.717 5.491 15.212 5.338 19.905 1.845 1.088 2.949 2.372 3.366 3.912.563 2.087-.162 4.38-2.217 7.013-4.046 5.18-7.472 7.699-10.474 7.699z"></path><path d="M96.834 156.214c-.417-1.538-1.686-2.682-3.424-3.6.136-3.156.425-16.961-4.767-19.587-2.619-1.325-6.149.449-10.507 5.254-.943-3.161-2.363-5.036-4.239-5.545-2.654-.717-6.14 1.378-10.371 6.235-.652-3.3-1.341-4.861-3.482-5.944-2.617-1.325-6.147.449-10.507 5.254-.942-3.161-2.361-5.036-4.237-5.545-2.616-.706-6.039 1.322-10.189 6.03-.667-2.9-1.675-4.737-3.656-5.739-2.618-1.325-6.148.449-10.507 5.254-.943-3.161-2.363-5.036-4.238-5.545-3.027-.817-7.134 2.021-12.199 8.444-1.271 1.611-1.723 3.016-1.381 4.292.381 1.422 1.74 2.439 3.625 3.265-.028 1.116-.348 17.783 5.465 20.543a3.929 3.929 0 0 0 1.711.384c2.365 0 5.22-1.973 8.52-5.88 1.053 3.32 2.556 5.269 4.486 5.76.317.081.646.121.984.121 2.467 0 5.47-2.146 8.952-6.399.772 3.215 1.796 4.998 3.937 6.015a3.935 3.935 0 0 0 1.711.384c2.365 0 5.221-1.973 8.521-5.88 1.053 3.32 2.556 5.269 4.486 5.76.317.081.646.121.984.121 2.467 0 5.473-2.148 8.958-6.406.773 3.219 1.797 5.004 3.938 6.021a3.94 3.94 0 0 0 1.712.384c2.365 0 5.22-1.973 8.52-5.88 1.053 3.32 2.556 5.269 4.486 5.76.317.081.646.121.984.121 2.638 0 5.89-2.454 9.686-7.315 1.846-2.369 2.514-4.375 2.038-6.137zM91.198 46.938l6.407-7.298-8.009-3.203 3.916-7.653-8.544-2.136 2.491-10.323s-21.713-.028-33.282 22.248c-4.239 8.163-7.653.356-7.653.356S33.532 16.148 12.709 16.325l3.025 9.967-9.077 1.069 4.538 8.008-8.098 4.271 6.318 6.229-6.318 5.518 4.805 5.339-3.915 6.408 7.298 3.915-2.67 6.763 7.119 1.958-1.78 8.544s27.054-2.67 33.104-24.205c0 0 2.561-6.408 6.175-.179S62.188 82 86.571 85.737l-2.849-8.187 9.433-2.669-3.915-7.476 7.475-3.561-5.517-6.939 6.407-5.513-6.407-4.454zm-54.247 6.745l-.43-1.74c4.825-1.192 5.143-2.12 5.146-2.128-.176-.615-3.174-1.773-6.168-2.352l.339-1.76c2.271.436 7.559 1.711 7.62 4.085.041 1.594-1.905 2.759-6.507 3.895zm26.567-1.741l-.431 1.74c-4.603-1.136-6.548-2.301-6.507-3.895.062-2.374 5.35-3.649 7.62-4.085l.341 1.76c-2.995.578-5.993 1.737-6.169 2.385.011.001.383.919 5.146 2.095zM179.389 34h-69.627c-5.488 0 18.238 34 24.795 34h69.627c5.488 0-18.239-34-24.795-34z"></path><path stroke-width="1.429" stroke-miterlimit="10" d="M112.907 37.161s15.459 26.158 23.736 28.575c8.277 2.414-14.063-27.051-23.736-28.575z"></path><path d="M96.898 156.221c-.418-1.54-1.688-2.686-3.429-3.604.136-3.16.426-16.984-4.773-19.614-2.623-1.327-6.158.45-10.521 5.262-.944-3.166-2.366-5.044-4.245-5.553-2.658-.718-6.148 1.38-10.386 6.244-.653-3.305-1.343-4.868-3.487-5.953-2.62-1.327-6.155.45-10.521 5.262-.944-3.166-2.365-5.044-4.243-5.553-2.621-.707-6.049 1.324-10.204 6.038-.667-2.904-1.677-4.743-3.661-5.747-2.622-1.327-6.157.45-10.521 5.262-.945-3.166-2.367-5.044-4.244-5.553-3.032-.818-7.145 2.023-12.217 8.456-1.272 1.613-1.725 3.02-1.383 4.298.381 1.424 1.742 2.442 3.631 3.27-.029 1.117-.349 17.808 5.471 20.571a3.95 3.95 0 0 0 1.715.384c2.368 0 5.227-1.975 8.531-5.888 1.054 3.325 2.559 5.276 4.492 5.768.318.081.646.121.986.121 2.469 0 5.477-2.149 8.965-6.408.773 3.22 1.799 5.005 3.941 6.023.539.256 1.11.384 1.714.384 2.368 0 5.228-1.975 8.531-5.888 1.055 3.325 2.56 5.276 4.493 5.768.317.081.646.121.985.121 2.471 0 5.48-2.151 8.971-6.415.774 3.224 1.8 5.011 3.943 6.03a3.945 3.945 0 0 0 1.714.384c2.369 0 5.228-1.975 8.531-5.888 1.055 3.325 2.56 5.276 4.493 5.768.317.081.647.121.985.121 2.642 0 5.897-2.457 9.699-7.325 1.852-2.372 2.52-4.382 2.044-6.146zm-8.573-22.217c4.408 2.23 4.342 14.562 4.225 18.164-2.174-.974-4.886-1.684-7.555-2.381-2.125-.556-4.132-1.08-5.822-1.716-2.414-.908-3.71-1.891-3.961-3.006-.19-.848.213-1.91 1.197-3.159 5.21-6.608 9.219-9.266 11.916-7.902zm-14.606-.231c1.634.443 2.879 2.243 3.713 5.327a56.948 56.948 0 0 0-1.709 2.066c-1.231 1.562-1.694 2.929-1.412 4.177.308 1.366 1.451 2.433 3.658 3.394-.005.184-.03 1.399.027 3.199-2.074-.856-4.559-1.51-7.009-2.15-2.579-.674-5.204-1.362-7.094-2.249-.033-.071-.078-.134-.108-.207l.01.158c-1.357-.651-2.322-1.409-2.572-2.35-.23-.861.165-1.948 1.179-3.232 4.828-6.124 8.639-8.858 11.317-8.133zm-14.031.231c1.957.989 2.602 2.774 3.093 5.85-.351.422-.706.855-1.065 1.313-1.274 1.613-1.727 3.02-1.383 4.298.373 1.397 1.695 2.404 3.53 3.223.082 1.62.082 2.476.049 3.48-2.175-.974-4.887-1.684-7.555-2.381-2.124-.556-4.131-1.08-5.823-1.716-2.412-.908-3.707-1.891-3.959-3.006-.189-.848.213-1.91 1.197-3.159 5.21-6.608 9.219-9.266 11.916-7.902zm-14.608-.231c1.636.443 2.881 2.243 3.715 5.327a54.937 54.937 0 0 0-1.709 2.066c-1.232 1.562-1.694 2.929-1.413 4.177.308 1.366 1.451 2.433 3.659 3.394a57.45 57.45 0 0 0 .026 3.199c-2.073-.856-4.558-1.51-7.01-2.15-4.504-1.178-9.161-2.395-9.765-4.647-.23-.861.166-1.948 1.18-3.232 4.829-6.125 8.64-8.859 11.317-8.134zm-14.023.231c1.992 1.007 2.525 2.774 3.006 5.943a69.16 69.16 0 0 0-.986 1.22c-1.273 1.613-1.725 3.02-1.383 4.298.381 1.424 1.742 2.442 3.63 3.27-.006.237-.015.836.021 1.953-.018.426-.043.855-.063 1.48-2.174-.974-4.886-1.684-7.554-2.381-2.125-.556-4.132-1.08-5.823-1.716-2.413-.908-3.708-1.891-3.959-3.006-.19-.848.212-1.91 1.196-3.159 5.21-6.608 9.217-9.266 11.915-7.902zM3.955 145.139c-.232-.861.165-1.948 1.178-3.232 4.829-6.124 8.641-8.858 11.317-8.133 1.634.443 2.88 2.243 3.714 5.327a55.925 55.925 0 0 0-1.709 2.066c-1.232 1.562-1.694 2.929-1.413 4.177.308 1.366 1.451 2.433 3.659 3.394-.006.184-.031 1.399.027 3.199-2.074-.856-4.559-1.51-7.01-2.15-4.503-1.179-9.161-2.395-9.763-4.648zm8.561 23.155c-4.852-2.303-4.921-16.662-4.895-19.184 1.73.652 3.787 1.19 5.895 1.741 4.881 1.275 10.412 2.722 11.215 5.698.362 1.342-.257 3.051-1.842 5.08-4.381 5.611-7.869 7.855-10.373 6.665zm14.584.209c-1.69-.43-3.023-2.314-3.969-5.577.149-.185.297-.368.447-.561 1.852-2.369 2.52-4.38 2.044-6.145-.456-1.688-1.942-2.899-3.944-3.859a67.626 67.626 0 0 1-.05-3.248c1.731.649 3.754 1.179 5.896 1.739 4.881 1.274 10.412 2.721 11.216 5.696.362 1.343-.258 3.052-1.842 5.081-4.048 5.184-7.345 7.5-9.798 6.874zm14.046-.209c-1.988-.944-2.862-2.783-3.524-5.977 1.822-2.349 2.481-4.344 2.008-6.097-.403-1.487-1.606-2.604-3.256-3.508a69.493 69.493 0 0 1-.103-2.112c.004-.421.002-.907-.013-1.487 1.729.65 3.783 1.188 5.888 1.738 4.881 1.275 10.413 2.722 11.214 5.698.363 1.342-.256 3.051-1.841 5.08-4.38 5.611-7.869 7.855-10.373 6.665zm14.584.209c-1.69-.43-3.022-2.314-3.968-5.577.148-.185.296-.368.446-.561 1.852-2.369 2.52-4.38 2.044-6.145-.458-1.688-1.943-2.899-3.944-3.859a63.421 63.421 0 0 1-.049-3.248c1.729.649 3.752 1.179 5.895 1.739 4.881 1.274 10.413 2.721 11.216 5.696.361 1.343-.258 3.052-1.843 5.081-4.048 5.184-7.344 7.5-9.797 6.874zm14.054-.209c-1.991-.944-2.864-2.787-3.525-5.984 1.816-2.346 2.475-4.338 2.002-6.089-.402-1.485-1.604-2.601-3.249-3.503-.114-1.85-.129-2.903-.122-3.607 1.731.652 3.786 1.19 5.894 1.741 4.881 1.275 10.412 2.722 11.217 5.698.36 1.342-.259 3.051-1.844 5.08-4.381 5.61-7.869 7.854-10.373 6.664zm24.382-6.664c-4.049 5.184-7.347 7.499-9.798 6.873-1.69-.43-3.023-2.314-3.97-5.577.15-.185.297-.368.447-.561 1.852-2.369 2.52-4.38 2.044-6.145-.455-1.688-1.941-2.899-3.943-3.859a69.43 69.43 0 0 1-.051-3.248c1.731.649 3.756 1.179 5.896 1.739 4.881 1.274 10.411 2.721 11.216 5.696.362 1.344-.258 3.053-1.841 5.082zM192.108 170.665c-.422 0-.836-.051-1.231-.152-1.92-.488-3.463-2.102-4.601-4.806-3.066 3.332-5.745 4.957-8.158 4.957-.75 0-1.471-.162-2.142-.48-2.128-1.012-3.228-2.675-3.962-4.854-3.208 3.587-6 5.336-8.504 5.336-.422 0-.836-.051-1.231-.152-1.92-.488-3.463-2.102-4.6-4.806-3.068 3.332-5.746 4.957-8.16 4.957a4.96 4.96 0 0 1-2.141-.48c-2.128-1.011-3.227-2.671-3.961-4.848-3.205 3.582-5.996 5.329-8.498 5.329-.422 0-.836-.051-1.232-.152-1.919-.488-3.462-2.102-4.6-4.806-3.066 3.332-5.745 4.957-8.158 4.957-.75 0-1.471-.162-2.141-.481-1.071-.508-6.344-3.884-6.049-20.812-2.04-1-3.184-2.167-3.577-3.639-.429-1.604.081-3.294 1.562-5.17 4.756-6.031 8.656-8.962 11.928-8.962.452 0 .895.058 1.317.171 1.864.506 3.333 2.061 4.378 4.629 3.173-3.226 5.896-4.798 8.299-4.798.8 0 1.561.18 2.26.533 1.74.881 2.891 2.307 3.682 4.632 3.324-3.474 6.166-5.167 8.657-5.167.451 0 .894.058 1.315.171 1.864.506 3.332 2.06 4.378 4.628 3.173-3.225 5.897-4.797 8.298-4.797.8 0 1.561.18 2.26.533 2.021 1.022 2.942 2.478 3.574 4.75 3.37-3.553 6.25-5.285 8.771-5.285.452 0 .896.058 1.317.171 1.864.506 3.333 2.061 4.38 4.628 3.172-3.225 5.896-4.797 8.297-4.797.801 0 1.561.18 2.26.533 5.371 2.717 5.491 15.212 5.338 19.905 1.845 1.088 2.949 2.372 3.366 3.912.563 2.087-.162 4.38-2.217 7.013-4.046 5.18-7.472 7.699-10.474 7.699z"></path><path stroke="#FFF" stroke-miterlimit="10" d="M141.875 139.75s-11.906 8.375-12.016 23M127.875 139.75s-11.906 8.375-12.016 23M154.875 139.75s-11.906 8.375-12.016 23M169.875 139.75s-11.906 8.375-12.016 23M183.875 139.75s-11.906 8.375-12.016 23M198.875 139.75s-11.906 8.375-12.016 23"></path></g><defs data-v-fde0c5aa=""><!----></defs><g data-v-fde0c5aa="" id="115c9e04-e724-4e9c-970e-7811ed2b861b" fill="#ffffff" transform="matrix(1.7461729154400476,0,0,1.7461729154400476,47.010722246680515,235.2043449338074)"><path d="M0.69 14.01L0.69 14.01Q0.62 14.01 0.56 13.96L0.56 13.96L0.56 13.96Q0.50 13.90 0.50 13.82L0.50 13.82L0.50 13.82Q0.50 13.73 0.56 13.68L0.56 13.68L0.56 13.68Q0.62 13.62 0.69 13.62L0.69 13.62L1.09 13.62L1.09 13.62Q1.33 13.62 1.50 13.45L1.50 13.45L1.50 13.45Q1.67 13.29 1.67 13.06L1.67 13.06L1.67 5.19L1.67 5.19Q1.67 5.04 1.57 4.93L1.57 4.93L1.57 4.93Q1.47 4.82 1.32 4.82L1.32 4.82L0.69 4.82L0.69 4.82Q0.62 4.82 0.56 4.75L0.56 4.75L0.56 4.75Q0.50 4.68 0.50 4.61L0.50 4.61L0.50 4.61Q0.50 4.52 0.56 4.47L0.56 4.47L0.56 4.47Q0.62 4.41 0.69 4.41L0.69 4.41L4.07 4.41L4.07 4.41Q4.17 4.41 4.23 4.47L4.23 4.47L4.23 4.47Q4.28 4.52 4.28 4.61L4.28 4.61L4.28 4.61Q4.28 4.69 4.22 4.75L4.22 4.75L4.22 4.75Q4.16 4.82 4.07 4.82L4.07 4.82L3.44 4.82L3.44 4.82Q3.29 4.82 3.18 4.93L3.18 4.93L3.18 4.93Q3.07 5.04 3.07 5.19L3.07 5.19L3.07 13.62L4.48 13.62L4.48 13.62Q5.39 13.62 5.98 13.43L5.98 13.43L5.98 13.43Q6.57 13.23 6.96 12.80L6.96 12.80L6.96 12.80Q7.36 12.38 7.69 11.62L7.69 11.62L7.69 11.62Q7.76 11.49 7.90 11.49L7.90 11.49L7.90 11.49Q7.94 11.49 7.98 11.52L7.98 11.52L7.98 11.52Q8.02 11.55 8.01 11.62L8.01 11.62L7.91 13.65L7.91 13.65Q7.90 13.80 7.78 13.91L7.78 13.91L7.78 13.91Q7.67 14.01 7.53 14.01L7.53 14.01L0.69 14.01ZM8.82 14.01L8.82 14.01Q8.74 14.01 8.68 13.96L8.68 13.96L8.68 13.96Q8.62 13.90 8.62 13.82L8.62 13.82L8.62 13.82Q8.62 13.66 8.82 13.62L8.82 13.62L8.82 13.62Q9.87 13.37 10.25 12.29L10.25 12.29L12.94 4.48L12.94 4.48Q13.02 4.30 13.16 4.34L13.16 4.34L13.78 4.41L13.78 4.41Q13.92 4.45 13.93 4.56L13.93 4.56L16.90 13.19L16.90 13.19Q16.97 13.38 17.12 13.50L17.12 13.50L17.12 13.50Q17.28 13.62 17.49 13.62L17.49 13.62L17.75 13.62L17.75 13.62Q17.85 13.62 17.90 13.68L17.90 13.68L17.90 13.68Q17.95 13.73 17.95 13.82L17.95 13.82L17.95 13.82Q17.95 13.90 17.90 13.96L17.90 13.96L17.90 13.96Q17.85 14.01 17.75 14.01L17.75 14.01L14.63 14.01L14.63 14.01Q14.53 14.01 14.48 13.96L14.48 13.96L14.48 13.96Q14.42 13.90 14.42 13.82L14.42 13.82L14.42 13.82Q14.42 13.73 14.48 13.68L14.48 13.68L14.48 13.68Q14.53 13.62 14.63 13.62L14.63 13.62L15.11 13.62L15.11 13.62Q15.26 13.62 15.36 13.51L15.36 13.51L15.36 13.51Q15.46 13.40 15.46 13.24L15.46 13.24L15.46 13.24Q15.46 13.16 15.44 13.12L15.44 13.12L14.59 10.67L11.12 10.67L10.57 12.35L10.57 12.35Q10.50 12.56 10.50 12.70L10.50 12.70L10.50 12.70Q10.50 13.08 10.77 13.35L10.77 13.35L10.77 13.35Q11.03 13.62 11.44 13.62L11.44 13.62L11.51 13.62L11.51 13.62Q11.58 13.62 11.62 13.68L11.62 13.68L11.62 13.68Q11.66 13.73 11.66 13.82L11.66 13.82L11.66 13.82Q11.66 13.90 11.62 13.96L11.62 13.96L11.62 13.96Q11.58 14.01 11.51 14.01L11.51 14.01L8.82 14.01ZM12.92 5.70L11.21 10.32L14.49 10.32L12.92 5.70ZM21.92 14.01L21.92 14.01Q21.83 14.01 21.77 13.96L21.77 13.96L21.77 13.96Q21.71 13.90 21.71 13.82L21.71 13.82L21.71 13.82Q21.71 13.73 21.77 13.68L21.77 13.68L21.77 13.68Q21.83 13.62 21.92 13.62L21.92 13.62L22.53 13.62L22.53 13.62Q22.68 13.62 22.78 13.51L22.78 13.51L22.78 13.51Q22.89 13.40 22.89 13.24L22.89 13.24L22.89 5.19L22.89 5.19Q22.89 5.04 22.78 4.93L22.78 4.93L22.78 4.93Q22.68 4.82 22.53 4.82L22.53 4.82L21.92 4.82L21.92 4.82Q21.84 4.82 21.78 4.75L21.78 4.75L21.78 4.75Q21.71 4.69 21.71 4.61L21.71 4.61L21.71 4.61Q21.71 4.52 21.77 4.47L21.77 4.47L21.77 4.47Q21.83 4.41 21.92 4.41L21.92 4.41L25.28 4.41L25.28 4.41Q26.92 4.41 28.17 4.94L28.17 4.94L28.17 4.94Q29.43 5.46 29.43 6.92L29.43 6.92L29.43 6.92Q29.43 8.41 28.24 8.97L28.24 8.97L28.24 8.97Q27.05 9.53 25.28 9.53L25.28 9.53L24.29 9.53L24.29 13.24L24.29 13.24Q24.29 13.40 24.40 13.51L24.40 13.51L24.40 13.51Q24.51 13.62 24.65 13.62L24.65 13.62L25.28 13.62L25.28 13.62Q25.37 13.62 25.43 13.68L25.43 13.68L25.43 13.68Q25.49 13.73 25.49 13.82L25.49 13.82L25.49 13.82Q25.49 13.90 25.43 13.96L25.43 13.96L25.43 13.96Q25.37 14.01 25.28 14.01L25.28 14.01L21.92 14.01ZM24.29 9.17L25.28 9.17L25.28 9.17Q26.19 9.17 26.75 9.02L26.75 9.02L26.75 9.02Q27.30 8.86 27.61 8.34L27.61 8.34L27.61 8.34Q27.93 7.83 27.93 6.79L27.93 6.79L27.93 6.79Q27.93 5.57 27.29 5.19L27.29 5.19L27.29 5.19Q26.66 4.82 25.68 4.82L25.68 4.82L24.29 4.82L24.29 9.17ZM29.02 14.01L29.02 14.01Q28.94 14.01 28.88 13.96L28.88 13.96L28.88 13.96Q28.83 13.90 28.83 13.82L28.83 13.82L28.83 13.82Q28.83 13.66 29.02 13.62L29.02 13.62L29.02 13.62Q30.07 13.37 30.45 12.29L30.45 12.29L33.14 4.48L33.14 4.48Q33.22 4.30 33.36 4.34L33.36 4.34L33.98 4.41L33.98 4.41Q34.12 4.45 34.13 4.56L34.13 4.56L37.10 13.19L37.10 13.19Q37.17 13.38 37.32 13.50L37.32 13.50L37.32 13.50Q37.48 13.62 37.69 13.62L37.69 13.62L37.95 13.62L37.95 13.62Q38.05 13.62 38.10 13.68L38.10 13.68L38.10 13.68Q38.15 13.73 38.15 13.82L38.15 13.82L38.15 13.82Q38.15 13.90 38.10 13.96L38.10 13.96L38.10 13.96Q38.05 14.01 37.95 14.01L37.95 14.01L34.83 14.01L34.83 14.01Q34.73 14.01 34.68 13.96L34.68 13.96L34.68 13.96Q34.62 13.90 34.62 13.82L34.62 13.82L34.62 13.82Q34.62 13.73 34.68 13.68L34.68 13.68L34.68 13.68Q34.73 13.62 34.83 13.62L34.83 13.62L35.31 13.62L35.31 13.62Q35.46 13.62 35.56 13.51L35.56 13.51L35.56 13.51Q35.66 13.40 35.66 13.24L35.66 13.24L35.66 13.24Q35.66 13.16 35.64 13.12L35.64 13.12L34.79 10.67L31.32 10.67L30.77 12.35L30.77 12.35Q30.70 12.56 30.70 12.70L30.70 12.70L30.70 12.70Q30.70 13.08 30.97 13.35L30.97 13.35L30.97 13.35Q31.23 13.62 31.64 13.62L31.64 13.62L31.71 13.62L31.71 13.62Q31.78 13.62 31.82 13.68L31.82 13.68L31.82 13.68Q31.86 13.73 31.86 13.82L31.86 13.82L31.86 13.82Q31.86 13.90 31.82 13.96L31.82 13.96L31.82 13.96Q31.78 14.01 31.71 14.01L31.71 14.01L29.02 14.01ZM33.12 5.70L31.42 10.32L34.69 10.32L33.12 5.70ZM41.94 14.20L41.94 14.20Q41.44 14.20 41.07 14.08L41.07 14.08L41.07 14.08Q40.70 13.96 40.22 13.73L40.22 13.73L40.22 13.73Q40.04 13.64 39.88 13.57L39.88 13.57L39.88 13.57Q39.72 13.51 39.59 13.51L39.59 13.51L39.59 13.51Q39.44 13.51 39.29 13.60L39.29 13.60L39.29 13.60Q39.14 13.69 39.02 13.79L39.02 13.79L39.02 13.79Q38.91 13.89 38.86 13.92L38.86 13.92L38.86 13.92Q38.82 13.94 38.74 13.94L38.74 13.94L38.74 13.94Q38.64 13.94 38.57 13.87L38.57 13.87L38.57 13.87Q38.50 13.80 38.50 13.71L38.50 13.71L38.50 11.35L38.50 11.35Q38.50 11.20 38.64 11.20L38.64 11.20L38.64 11.20Q38.77 11.20 38.84 11.35L38.84 11.35L38.84 11.35Q39.37 12.53 40.10 13.19L40.10 13.19L40.10 13.19Q40.84 13.85 41.94 13.85L41.94 13.85L41.94 13.85Q43.02 13.85 43.49 13.29L43.49 13.29L43.49 13.29Q43.96 12.74 44.07 12.15L44.07 12.15L44.07 12.15Q44.10 12.04 44.10 11.86L44.10 11.86L44.10 11.86Q44.10 10.99 43.32 10.52L43.32 10.52L43.32 10.52Q42.55 10.05 41.31 9.72L41.31 9.72L41.31 9.72Q40.66 9.52 40.09 9.25L40.09 9.25L40.09 9.25Q39.52 8.99 39.01 8.41L39.01 8.41L39.01 8.41Q38.50 7.83 38.50 6.93L38.50 6.93L38.50 6.93Q38.50 6.10 38.86 5.51L38.86 5.51L38.86 5.51Q39.23 4.91 39.84 4.61L39.84 4.61L39.84 4.61Q40.46 4.31 41.22 4.31L41.22 4.31L41.22 4.31Q42.01 4.31 42.92 4.80L42.92 4.80L42.92 4.80Q43.04 4.84 43.22 4.84L43.22 4.84L43.22 4.84Q43.53 4.84 43.71 4.66L43.71 4.66L43.71 4.66Q43.79 4.59 43.85 4.56L43.85 4.56L43.85 4.56Q43.92 4.52 43.99 4.52L43.99 4.52L43.99 4.52Q44.17 4.52 44.17 4.72L44.17 4.72L44.21 6.78L44.21 6.78Q44.21 7.00 44.07 7.00L44.07 7.00L44.07 7.00Q44.02 7.00 43.97 6.94L43.97 6.94L43.97 6.94Q43.92 6.87 43.85 6.75L43.85 6.75L43.85 6.75Q43.18 5.54 42.63 5.11L42.63 5.11L42.63 5.11Q42.03 4.62 41.27 4.62L41.27 4.62L41.27 4.62Q40.42 4.62 39.89 5.09L39.89 5.09L39.89 5.09Q39.35 5.56 39.35 6.29L39.35 6.29L39.35 6.29Q39.35 6.85 39.66 7.20L39.66 7.20L39.66 7.20Q39.97 7.55 40.47 7.75L40.47 7.75L40.47 7.75Q40.96 7.95 41.75 8.15L41.75 8.15L41.75 8.15Q42.56 8.37 43.18 8.65L43.18 8.65L43.18 8.65Q43.81 8.92 44.30 9.53L44.30 9.53L44.30 9.53Q44.80 10.15 44.80 11.17L44.80 11.17L44.80 11.17Q44.80 11.98 44.45 12.68L44.45 12.68L44.45 12.68Q44.10 13.37 43.45 13.78L43.45 13.78L43.45 13.78Q42.80 14.20 41.94 14.20L41.94 14.20ZM47.91 14.01L47.91 14.01Q47.82 14.01 47.75 13.96L47.75 13.96L47.75 13.96Q47.68 13.90 47.68 13.82L47.68 13.82L47.68 13.82Q47.68 13.73 47.75 13.68L47.75 13.68L47.75 13.68Q47.82 13.62 47.91 13.62L47.91 13.62L48.52 13.62L48.52 13.62Q48.68 13.62 48.79 13.50L48.79 13.50L48.79 13.50Q48.90 13.38 48.90 13.24L48.90 13.24L48.90 4.82L48.90 4.82Q48.19 4.82 47.73 4.91L47.73 4.91L47.73 4.91Q47.26 5.00 46.86 5.33L46.86 5.33L46.86 5.33Q46.47 5.66 46.17 6.33L46.17 6.33L45.92 6.82L45.92 6.82Q45.91 6.85 45.88 6.91L45.88 6.91L45.88 6.91Q45.85 6.97 45.78 6.97L45.78 6.97L45.78 6.97Q45.71 6.97 45.65 6.93L45.65 6.93L45.65 6.93Q45.60 6.89 45.60 6.82L45.60 6.82L45.74 4.66L45.74 4.66Q45.74 4.55 45.81 4.48L45.81 4.48L45.81 4.48Q45.89 4.41 45.99 4.41L45.99 4.41L53.17 4.41L53.17 4.41Q53.28 4.41 53.36 4.49L53.36 4.49L53.36 4.49Q53.44 4.56 53.45 4.66L53.45 4.66L53.54 6.82L53.54 6.82Q53.54 6.89 53.50 6.93L53.50 6.93L53.50 6.93Q53.47 6.97 53.41 6.97L53.41 6.97L53.41 6.97Q53.34 6.97 53.26 6.82L53.26 6.82L53.00 6.33L53.00 6.33Q52.72 5.67 52.32 5.34L52.32 5.34L52.32 5.34Q51.91 5.01 51.44 4.91L51.44 4.91L51.44 4.91Q50.97 4.82 50.30 4.82L50.30 4.82L50.30 13.24L50.30 13.24Q50.30 13.40 50.41 13.51L50.41 13.51L50.41 13.51Q50.51 13.62 50.65 13.62L50.65 13.62L51.28 13.62L51.28 13.62Q51.35 13.62 51.41 13.68L51.41 13.68L51.41 13.68Q51.48 13.73 51.48 13.82L51.48 13.82L51.48 13.82Q51.48 13.90 51.41 13.96L51.41 13.96L51.41 13.96Q51.35 14.01 51.28 14.01L51.28 14.01L47.91 14.01ZM53.19 14.01L53.19 14.01Q53.10 14.01 53.05 13.96L53.05 13.96L53.05 13.96Q52.99 13.90 52.99 13.82L52.99 13.82L52.99 13.82Q52.99 13.66 53.19 13.62L53.19 13.62L53.19 13.62Q54.24 13.37 54.61 12.29L54.61 12.29L57.30 4.48L57.30 4.48Q57.39 4.30 57.53 4.34L57.53 4.34L58.14 4.41L58.14 4.41Q58.28 4.45 58.30 4.56L58.30 4.56L61.26 13.19L61.26 13.19Q61.33 13.38 61.49 13.50L61.49 13.50L61.49 13.50Q61.64 13.62 61.85 13.62L61.85 13.62L62.12 13.62L62.12 13.62Q62.22 13.62 62.27 13.68L62.27 13.68L62.27 13.68Q62.31 13.73 62.31 13.82L62.31 13.82L62.31 13.82Q62.31 13.90 62.27 13.96L62.27 13.96L62.27 13.96Q62.22 14.01 62.12 14.01L62.12 14.01L59.00 14.01L59.00 14.01Q58.90 14.01 58.84 13.96L58.84 13.96L58.84 13.96Q58.79 13.90 58.79 13.82L58.79 13.82L58.79 13.82Q58.79 13.73 58.84 13.68L58.84 13.68L58.84 13.68Q58.90 13.62 59.00 13.62L59.00 13.62L59.47 13.62L59.47 13.62Q59.63 13.62 59.72 13.51L59.72 13.51L59.72 13.51Q59.82 13.40 59.82 13.24L59.82 13.24L59.82 13.24Q59.82 13.16 59.81 13.12L59.81 13.12L58.95 10.67L55.48 10.67L54.94 12.35L54.94 12.35Q54.87 12.56 54.87 12.70L54.87 12.70L54.87 12.70Q54.87 13.08 55.13 13.35L55.13 13.35L55.13 13.35Q55.40 13.62 55.80 13.62L55.80 13.62L55.87 13.62L55.87 13.62Q55.94 13.62 55.99 13.68L55.99 13.68L55.99 13.68Q56.03 13.73 56.03 13.82L56.03 13.82L56.03 13.82Q56.03 13.90 55.99 13.96L55.99 13.96L55.99 13.96Q55.94 14.01 55.87 14.01L55.87 14.01L53.19 14.01ZM57.29 5.70L55.58 10.32L58.86 10.32L57.29 5.70ZM66.29 14.01L66.29 14.01Q66.19 14.01 66.14 13.96L66.14 13.96L66.14 13.96Q66.08 13.90 66.08 13.82L66.08 13.82L66.08 13.82Q66.08 13.73 66.14 13.68L66.14 13.68L66.14 13.68Q66.19 13.62 66.29 13.62L66.29 13.62L66.84 13.62L66.84 13.62Q66.98 13.62 67.09 13.51L67.09 13.51L67.09 13.51Q67.20 13.40 67.20 13.24L67.20 13.24L67.20 5.19L67.20 5.19Q67.20 5.04 67.09 4.93L67.09 4.93L67.09 4.93Q66.99 4.82 66.84 4.82L66.84 4.82L66.29 4.82L66.29 4.82Q66.21 4.82 66.14 4.75L66.14 4.75L66.14 4.75Q66.08 4.69 66.08 4.61L66.08 4.61L66.08 4.61Q66.08 4.52 66.14 4.47L66.14 4.47L66.14 4.47Q66.19 4.41 66.29 4.41L66.29 4.41L72.97 4.41L72.97 4.41Q73.11 4.41 73.21 4.53L73.21 4.53L73.21 4.53Q73.30 4.65 73.30 4.80L73.30 4.80L73.30 6.82L73.30 6.82Q73.30 6.89 73.27 6.93L73.27 6.93L73.27 6.93Q73.23 6.97 73.21 6.97L73.21 6.97L73.21 6.97Q73.08 6.97 73.02 6.82L73.02 6.82L72.81 6.33L72.81 6.33Q72.48 5.36 71.68 5.09L71.68 5.09L71.68 5.09Q70.88 4.82 70.14 4.82L70.14 4.82L68.60 4.82L68.60 8.95L68.82 8.95L68.82 8.95Q69.40 8.95 69.82 8.87L69.82 8.87L69.82 8.87Q70.24 8.79 70.59 8.51L70.59 8.51L70.59 8.51Q70.94 8.22 71.08 7.62L71.08 7.62L71.08 7.62Q71.08 7.43 71.26 7.43L71.26 7.43L71.26 7.43Q71.33 7.43 71.39 7.49L71.39 7.49L71.39 7.49Q71.44 7.55 71.44 7.62L71.44 7.62L71.44 10.67L71.44 10.67Q71.44 10.74 71.39 10.80L71.39 10.80L71.39 10.80Q71.33 10.86 71.26 10.86L71.26 10.86L71.26 10.86Q71.18 10.86 71.13 10.81L71.13 10.81L71.13 10.81Q71.08 10.75 71.08 10.67L71.08 10.67L71.08 10.67Q70.91 9.93 70.38 9.64L70.38 9.64L70.38 9.64Q69.86 9.35 68.77 9.35L68.77 9.35L68.60 9.35L68.60 13.51L68.60 13.51Q68.60 13.62 68.70 13.62L68.70 13.62L69.68 13.62L69.68 13.62Q69.76 13.62 69.83 13.68L69.83 13.68L69.83 13.68Q69.90 13.73 69.90 13.82L69.90 13.82L69.90 13.82Q69.90 13.90 69.83 13.96L69.83 13.96L69.83 13.96Q69.76 14.01 69.68 14.01L69.68 14.01L66.29 14.01ZM81.40 14.11L81.40 14.11Q80.57 14.11 80.19 13.52L80.19 13.52L80.19 13.52Q80.00 13.23 79.91 12.85L79.91 12.85L79.91 12.85Q79.83 12.46 79.74 11.79L79.74 11.79L79.74 11.79Q79.66 11.00 79.58 10.64L79.58 10.64L79.58 10.64Q79.45 10.07 79.24 9.77L79.24 9.77L79.24 9.77Q79.03 9.46 78.62 9.34L78.62 9.34L78.62 9.34Q78.20 9.21 77.45 9.21L77.45 9.21L76.87 9.21L76.87 13.24L76.87 13.24Q76.87 13.40 76.99 13.51L76.99 13.51L76.99 13.51Q77.10 13.62 77.24 13.62L77.24 13.62L77.87 13.62L77.87 13.62Q77.95 13.62 78.02 13.68L78.02 13.68L78.02 13.68Q78.08 13.73 78.08 13.82L78.08 13.82L78.08 13.82Q78.08 13.90 78.02 13.96L78.02 13.96L78.02 13.96Q77.95 14.01 77.87 14.01L77.87 14.01L74.51 14.01L74.51 14.01Q74.41 14.01 74.35 13.96L74.35 13.96L74.35 13.96Q74.30 13.90 74.30 13.82L74.30 13.82L74.30 13.82Q74.30 13.73 74.35 13.68L74.35 13.68L74.35 13.68Q74.41 13.62 74.51 13.62L74.51 13.62L75.11 13.62L75.11 13.62Q75.26 13.62 75.37 13.51L75.37 13.51L75.37 13.51Q75.47 13.40 75.47 13.24L75.47 13.24L75.47 5.19L75.47 5.19Q75.47 5.04 75.37 4.93L75.37 4.93L75.37 4.93Q75.26 4.82 75.11 4.82L75.11 4.82L74.51 4.82L74.51 4.82Q74.42 4.82 74.36 4.75L74.36 4.75L74.36 4.75Q74.30 4.69 74.30 4.61L74.30 4.61L74.30 4.61Q74.30 4.52 74.35 4.47L74.35 4.47L74.35 4.47Q74.41 4.41 74.51 4.41L74.51 4.41L77.87 4.41L77.87 4.41Q79.52 4.41 80.66 4.86L80.66 4.86L80.66 4.86Q81.80 5.31 81.80 6.73L81.80 6.73L81.80 6.73Q81.80 8.75 79.03 9.14L79.03 9.14L79.07 9.14L79.07 9.14Q79.88 9.27 80.36 9.84L80.36 9.84L80.36 9.84Q80.84 10.42 81.14 11.52L81.14 11.52L81.28 12.03L81.28 12.03Q81.45 12.64 81.54 12.90L81.54 12.90L81.54 12.90Q81.62 13.16 81.72 13.27L81.72 13.27L81.72 13.27Q81.83 13.38 82.01 13.38L82.01 13.38L82.01 13.38Q82.17 13.38 82.27 13.31L82.27 13.31L82.27 13.31Q82.38 13.24 82.47 13.13L82.47 13.13L82.47 13.13Q82.56 13.03 82.62 12.99L82.62 12.99L82.62 12.99Q82.68 12.94 82.78 12.94L82.78 12.94L82.78 12.94Q82.84 12.94 82.86 12.96L82.86 12.96L82.86 12.96Q82.88 12.99 82.88 13.08L82.88 13.08L82.88 13.08Q82.88 13.33 82.68 13.57L82.68 13.57L82.68 13.57Q82.49 13.80 82.14 13.96L82.14 13.96L82.14 13.96Q81.80 14.11 81.40 14.11L81.40 14.11ZM76.87 8.83L77.87 8.83L77.87 8.83Q78.54 8.83 79.04 8.72L79.04 8.72L79.04 8.72Q79.53 8.61 79.92 8.15L79.92 8.15L79.92 8.15Q80.30 7.69 80.30 6.73L80.30 6.73L80.30 6.73Q80.30 5.88 79.99 5.47L79.99 5.47L79.99 5.47Q79.67 5.05 79.17 4.94L79.17 4.94L79.17 4.94Q78.67 4.82 77.87 4.82L77.87 4.82L76.87 4.82L76.87 8.83ZM84.08 14.01L84.08 14.01Q83.99 14.01 83.93 13.96L83.93 13.96L83.93 13.96Q83.87 13.90 83.87 13.82L83.87 13.82L83.87 13.82Q83.87 13.73 83.93 13.68L83.93 13.68L83.93 13.68Q83.99 13.62 84.08 13.62L84.08 13.62L84.63 13.62L84.63 13.62Q84.77 13.62 84.88 13.51L84.88 13.51L84.88 13.51Q84.99 13.40 84.99 13.24L84.99 13.24L84.99 5.19L84.99 5.19Q84.99 5.04 84.89 4.93L84.89 4.93L84.89 4.93Q84.78 4.82 84.63 4.82L84.63 4.82L84.08 4.82L84.08 4.82Q84 4.82 83.94 4.75L83.94 4.75L83.94 4.75Q83.87 4.69 83.87 4.61L83.87 4.61L83.87 4.61Q83.87 4.52 83.93 4.47L83.93 4.47L83.93 4.47Q83.99 4.41 84.08 4.41L84.08 4.41L90.86 4.41L90.86 4.41Q91 4.41 91.11 4.53L91.11 4.53L91.11 4.53Q91.22 4.65 91.22 4.80L91.22 4.80L91.22 6.82L91.22 6.82Q91.22 6.89 91.18 6.93L91.18 6.93L91.18 6.93Q91.13 6.97 91.10 6.97L91.10 6.97L91.10 6.97Q91 6.97 90.94 6.82L90.94 6.82L90.94 6.82Q90.51 5.70 89.86 5.26L89.86 5.26L89.86 5.26Q89.21 4.82 88.06 4.82L88.06 4.82L86.39 4.82L86.39 8.95L86.39 8.95Q86.98 8.95 87.42 8.88L87.42 8.88L87.42 8.88Q87.86 8.81 88.25 8.51L88.25 8.51L88.25 8.51Q88.63 8.22 88.77 7.62L88.77 7.62L88.77 7.62Q88.77 7.55 88.82 7.49L88.82 7.49L88.82 7.49Q88.87 7.43 88.96 7.43L88.96 7.43L88.96 7.43Q89.03 7.43 89.09 7.49L89.09 7.49L89.09 7.49Q89.15 7.55 89.15 7.62L89.15 7.62L89.15 10.67L89.15 10.67Q89.15 10.74 89.09 10.80L89.09 10.80L89.09 10.80Q89.03 10.86 88.96 10.86L88.96 10.86L88.96 10.86Q88.87 10.86 88.82 10.81L88.82 10.81L88.82 10.81Q88.77 10.75 88.77 10.67L88.77 10.67L88.77 10.67Q88.61 9.91 88.08 9.64L88.08 9.64L88.08 9.64Q87.56 9.37 86.39 9.35L86.39 9.35L86.39 13.62L88.07 13.62L88.07 13.62Q89.33 13.62 90.07 13.17L90.07 13.17L90.07 13.17Q90.80 12.73 91.31 11.62L91.31 11.62L91.31 11.62Q91.36 11.49 91.49 11.49L91.49 11.49L91.49 11.49Q91.52 11.49 91.55 11.53L91.55 11.53L91.55 11.53Q91.59 11.56 91.59 11.62L91.59 11.62L91.49 13.65L91.49 13.65Q91.49 13.79 91.36 13.90L91.36 13.90L91.36 13.90Q91.24 14.01 91.08 14.01L91.08 14.01L84.08 14.01ZM96.05 14.20L96.05 14.20Q95.55 14.20 95.18 14.08L95.18 14.08L95.18 14.08Q94.81 13.96 94.33 13.73L94.33 13.73L94.33 13.73Q94.15 13.64 93.99 13.57L93.99 13.57L93.99 13.57Q93.83 13.51 93.70 13.51L93.70 13.51L93.70 13.51Q93.55 13.51 93.40 13.60L93.40 13.60L93.40 13.60Q93.25 13.69 93.14 13.79L93.14 13.79L93.14 13.79Q93.02 13.89 92.97 13.92L92.97 13.92L92.97 13.92Q92.93 13.94 92.85 13.94L92.85 13.94L92.85 13.94Q92.75 13.94 92.68 13.87L92.68 13.87L92.68 13.87Q92.61 13.80 92.61 13.71L92.61 13.71L92.61 11.35L92.61 11.35Q92.61 11.20 92.75 11.20L92.75 11.20L92.75 11.20Q92.88 11.20 92.95 11.35L92.95 11.35L92.95 11.35Q93.48 12.53 94.21 13.19L94.21 13.19L94.21 13.19Q94.95 13.85 96.05 13.85L96.05 13.85L96.05 13.85Q97.13 13.85 97.60 13.29L97.60 13.29L97.60 13.29Q98.07 12.74 98.18 12.15L98.18 12.15L98.18 12.15Q98.21 12.04 98.21 11.86L98.21 11.86L98.21 11.86Q98.21 10.99 97.43 10.52L97.43 10.52L97.43 10.52Q96.66 10.05 95.42 9.72L95.42 9.72L95.42 9.72Q94.77 9.52 94.20 9.25L94.20 9.25L94.20 9.25Q93.63 8.99 93.12 8.41L93.12 8.41L93.12 8.41Q92.61 7.83 92.61 6.93L92.61 6.93L92.61 6.93Q92.61 6.10 92.97 5.51L92.97 5.51L92.97 5.51Q93.34 4.91 93.95 4.61L93.95 4.61L93.95 4.61Q94.57 4.31 95.33 4.31L95.33 4.31L95.33 4.31Q96.12 4.31 97.03 4.80L97.03 4.80L97.03 4.80Q97.15 4.84 97.33 4.84L97.33 4.84L97.33 4.84Q97.64 4.84 97.82 4.66L97.82 4.66L97.82 4.66Q97.90 4.59 97.97 4.56L97.97 4.56L97.97 4.56Q98.03 4.52 98.10 4.52L98.10 4.52L98.10 4.52Q98.28 4.52 98.28 4.72L98.28 4.72L98.32 6.78L98.32 6.78Q98.32 7.00 98.18 7.00L98.18 7.00L98.18 7.00Q98.13 7.00 98.08 6.94L98.08 6.94L98.08 6.94Q98.03 6.87 97.96 6.75L97.96 6.75L97.96 6.75Q97.29 5.54 96.74 5.11L96.74 5.11L96.74 5.11Q96.14 4.62 95.38 4.62L95.38 4.62L95.38 4.62Q94.53 4.62 94.00 5.09L94.00 5.09L94.00 5.09Q93.46 5.56 93.46 6.29L93.46 6.29L93.46 6.29Q93.46 6.85 93.77 7.20L93.77 7.20L93.77 7.20Q94.08 7.55 94.58 7.75L94.58 7.75L94.58 7.75Q95.07 7.95 95.86 8.15L95.86 8.15L95.86 8.15Q96.67 8.37 97.29 8.65L97.29 8.65L97.29 8.65Q97.92 8.92 98.41 9.53L98.41 9.53L98.41 9.53Q98.91 10.15 98.91 11.17L98.91 11.17L98.91 11.17Q98.91 11.98 98.56 12.68L98.56 12.68L98.56 12.68Q98.21 13.37 97.56 13.78L97.56 13.78L97.56 13.78Q96.91 14.20 96.05 14.20L96.05 14.20ZM104.38 14.14L104.38 14.14Q103.15 14.14 102.12 13.48L102.12 13.48L102.12 13.48Q101.08 12.81 100.48 11.68L100.48 11.68L100.48 11.68Q99.89 10.54 99.89 9.21L99.89 9.21L99.89 9.21Q99.89 7.87 100.48 6.73L100.48 6.73L100.48 6.73Q101.08 5.59 102.09 4.92L102.09 4.92L102.09 4.92Q103.11 4.26 104.31 4.26L104.31 4.26L104.31 4.26Q105.32 4.26 106.22 4.75L106.22 4.75L106.22 4.75Q106.33 4.80 106.44 4.80L106.44 4.80L106.44 4.80Q106.71 4.80 106.99 4.61L106.99 4.61L106.99 4.61Q107.07 4.52 107.13 4.50L107.13 4.50L107.13 4.50Q107.20 4.48 107.30 4.48L107.30 4.48L107.30 4.48Q107.46 4.48 107.46 4.66L107.46 4.66L107.52 6.73L107.52 6.73Q107.52 6.93 107.37 6.93L107.37 6.93L107.37 6.93Q107.31 6.93 107.26 6.88L107.26 6.88L107.26 6.88Q107.21 6.83 107.16 6.73L107.16 6.73L107.16 6.73Q106.61 5.66 105.99 5.13L105.99 5.13L105.99 5.13Q105.38 4.61 104.41 4.61L104.41 4.61L104.41 4.61Q103.10 4.61 102.32 5.71L102.32 5.71L102.32 5.71Q101.54 6.80 101.54 9.18L101.54 9.18L101.54 9.18Q101.54 11.58 102.31 12.70L102.31 12.70L102.31 12.70Q103.08 13.82 104.38 13.82L104.38 13.82L104.38 13.82Q105.76 13.82 106.51 13.03L106.51 13.03L106.51 13.03Q107.27 12.24 107.59 11.58L107.59 11.58L107.59 11.58Q107.67 11.42 107.80 11.49L107.80 11.49L107.80 11.49Q107.90 11.56 107.92 11.61L107.92 11.61L107.92 11.61Q107.94 11.66 107.91 11.75L107.91 11.75L107.91 11.75Q107.91 11.86 107.52 12.47L107.52 12.47L107.52 12.47Q107.13 13.08 106.34 13.61L106.34 13.61L106.34 13.61Q105.56 14.14 104.38 14.14L104.38 14.14ZM108.33 14.01L108.33 14.01Q108.25 14.01 108.19 13.96L108.19 13.96L108.19 13.96Q108.14 13.90 108.14 13.82L108.14 13.82L108.14 13.82Q108.14 13.66 108.33 13.62L108.33 13.62L108.33 13.62Q109.38 13.37 109.76 12.29L109.76 12.29L112.45 4.48L112.45 4.48Q112.53 4.30 112.67 4.34L112.67 4.34L113.29 4.41L113.29 4.41Q113.43 4.45 113.44 4.56L113.44 4.56L116.41 13.19L116.41 13.19Q116.48 13.38 116.63 13.50L116.63 13.50L116.63 13.50Q116.79 13.62 117.00 13.62L117.00 13.62L117.26 13.62L117.26 13.62Q117.36 13.62 117.41 13.68L117.41 13.68L117.41 13.68Q117.46 13.73 117.46 13.82L117.46 13.82L117.46 13.82Q117.46 13.90 117.41 13.96L117.41 13.96L117.41 13.96Q117.36 14.01 117.26 14.01L117.26 14.01L114.14 14.01L114.14 14.01Q114.04 14.01 113.99 13.96L113.99 13.96L113.99 13.96Q113.93 13.90 113.93 13.82L113.93 13.82L113.93 13.82Q113.93 13.73 113.99 13.68L113.99 13.68L113.99 13.68Q114.04 13.62 114.14 13.62L114.14 13.62L114.62 13.62L114.62 13.62Q114.77 13.62 114.87 13.51L114.87 13.51L114.87 13.51Q114.97 13.40 114.97 13.24L114.97 13.24L114.97 13.24Q114.97 13.16 114.95 13.12L114.95 13.12L114.10 10.67L110.63 10.67L110.08 12.35L110.08 12.35Q110.01 12.56 110.01 12.70L110.01 12.70L110.01 12.70Q110.01 13.08 110.28 13.35L110.28 13.35L110.28 13.35Q110.54 13.62 110.95 13.62L110.95 13.62L111.02 13.62L111.02 13.62Q111.09 13.62 111.13 13.68L111.13 13.68L111.13 13.68Q111.17 13.73 111.17 13.82L111.17 13.82L111.17 13.82Q111.17 13.90 111.13 13.96L111.13 13.96L111.13 13.96Q111.09 14.01 111.02 14.01L111.02 14.01L108.33 14.01ZM112.43 5.70L110.73 10.32L114.00 10.32L112.43 5.70Z"></path></g></svg>