<svg data-v-423bf9ae="" xmlns="http://www.w3.org/2000/svg" viewBox="0 0 229.34441969903463 60" class="font"><!----><!----><!----><g data-v-423bf9ae="" id="0f535ac1-a485-4722-b5e9-433771b350ae" fill="white" transform="matrix(4.979253427292024,0,0,4.979253427292024,-2.489623962455312,-21.95850685458405)"><path d="M0.77 16.46L0.77 16.46Q0.67 16.46 0.67 16.31L0.67 16.31L0.67 16.31Q0.67 16.18 0.81 16.18L0.81 16.18L1.20 16.18L1.20 16.18Q1.33 16.18 1.39 16.09L1.39 16.09L1.39 16.09Q1.46 15.99 1.46 15.83L1.46 15.83L1.46 9.00L1.46 9.00Q1.46 8.69 1.20 8.69L1.20 8.69L0.67 8.69L0.67 8.69Q0.50 8.69 0.50 8.54L0.50 8.54L0.50 8.54Q0.50 8.36 0.69 8.36L0.69 8.36L2.27 8.36L2.27 8.36Q2.48 8.36 2.48 8.58L2.48 8.58L2.48 9.41L2.48 9.41Q2.55 9.23 2.77 8.96L2.77 8.96L2.77 8.96Q2.98 8.69 3.35 8.48L3.35 8.48L3.35 8.48Q3.71 8.27 4.19 8.27L4.19 8.27L4.19 8.27Q4.76 8.27 5.31 8.60L5.31 8.60L5.31 8.60Q5.87 8.93 6.22 9.58L6.22 9.58L6.22 9.58Q6.58 10.23 6.58 11.13L6.58 11.13L6.58 11.13Q6.58 12.10 6.16 12.75L6.16 12.75L6.16 12.75Q5.74 13.41 5.13 13.72L5.13 13.72L5.13 13.72Q4.52 14.03 3.96 14.03L3.96 14.03L3.96 14.03Q3.15 14.03 2.48 13.33L2.48 13.33L2.48 15.96L2.48 15.96Q2.48 16.09 2.52 16.13L2.52 16.13L2.52 16.13Q2.56 16.17 2.66 16.17L2.66 16.17L3.26 16.17L3.26 16.17Q3.35 16.17 3.36 16.20L3.36 16.20L3.36 16.20Q3.37 16.23 3.37 16.31L3.37 16.31L3.37 16.31Q3.37 16.46 3.26 16.46L3.26 16.46L0.77 16.46ZM3.92 13.79L3.92 13.79Q4.70 13.79 5.06 13.14L5.06 13.14L5.06 13.14Q5.42 12.49 5.42 11.17L5.42 11.17L5.42 11.17Q5.42 9.86 5.08 9.22L5.08 9.22L5.08 9.22Q4.73 8.58 4.03 8.58L4.03 8.58L4.03 8.58Q3.42 8.58 3.01 9.00L3.01 9.00L3.01 9.00Q2.60 9.41 2.48 10.00L2.48 10.00L2.48 12.81L2.48 12.81Q2.95 13.79 3.92 13.79L3.92 13.79ZM9.23 14.20L9.23 14.20Q8.43 14.20 8.02 13.75L8.02 13.75L8.02 13.75Q7.60 13.30 7.60 12.67L7.60 12.67L7.60 12.67Q7.60 12.00 8.09 11.56L8.09 11.56L8.09 11.56Q8.57 11.13 9.31 10.93L9.31 10.93L9.31 10.93Q10.02 10.71 10.84 10.71L10.84 10.71L11.03 10.72L11.03 10.46L11.03 10.46Q11.03 9.88 10.96 9.49L10.96 9.49L10.96 9.49Q10.89 9.10 10.61 8.83L10.61 8.83L10.61 8.83Q10.33 8.55 9.76 8.55L9.76 8.55L9.76 8.55Q9.34 8.55 9.21 8.67L9.21 8.67L9.21 8.67Q9.09 8.78 9.09 8.90L9.09 8.90L9.09 8.90Q9.09 8.97 9.16 9.13L9.16 9.13L9.16 9.13Q9.23 9.28 9.23 9.35L9.23 9.35L9.23 9.35Q9.23 9.66 9.06 9.81L9.06 9.81L9.06 9.81Q8.90 10.00 8.62 10.00L8.62 10.00L8.62 10.00Q8.37 10.00 8.18 9.80L8.18 9.80L8.18 9.80Q8.08 9.69 8.04 9.59L8.04 9.59L8.04 9.59Q7.99 9.49 7.99 9.37L7.99 9.37L7.99 9.37Q7.99 9.10 8.18 8.88L8.18 8.88L8.18 8.88Q8.47 8.54 8.95 8.43L8.95 8.43L8.95 8.43Q9.44 8.32 9.87 8.32L9.87 8.32L9.87 8.32Q10.54 8.32 10.99 8.47L10.99 8.47L10.99 8.47Q11.44 8.62 11.70 8.96L11.70 8.96L11.70 8.96Q11.93 9.25 11.98 9.59L11.98 9.59L11.98 9.59Q12.03 9.93 12.03 10.72L12.03 10.72L12.03 12.89L12.03 12.89Q12.03 13.66 12.43 13.66L12.43 13.66L12.43 13.66Q12.66 13.66 12.88 13.44L12.88 13.44L12.88 13.44Q12.91 13.43 12.92 13.41L12.92 13.41L12.92 13.41Q12.94 13.38 12.96 13.38L12.96 13.38L12.96 13.38Q13.05 13.38 13.05 13.48L13.05 13.48L13.05 13.48Q13.05 13.68 12.73 13.91L12.73 13.91L12.73 13.91Q12.42 14.14 12.12 14.14L12.12 14.14L12.12 14.14Q11.76 14.14 11.49 13.87L11.49 13.87L11.49 13.87Q11.21 13.59 11.07 13.19L11.07 13.19L11.07 13.19Q11.03 13.19 11.01 13.17L11.01 13.17L11.01 13.17Q10.99 13.16 10.98 13.19L10.98 13.19L10.98 13.19Q10.37 14.20 9.23 14.20L9.23 14.20ZM9.63 13.71L9.63 13.71Q10.01 13.71 10.33 13.51L10.33 13.51L10.33 13.51Q10.65 13.31 10.84 13.03L10.84 13.03L10.84 13.03Q11.03 12.75 11.03 12.52L11.03 12.52L11.03 10.99L11.03 10.99Q10.63 10.99 10.16 11.05L10.16 11.05L10.16 11.05Q9.70 11.12 9.39 11.27L9.39 11.27L9.39 11.27Q8.92 11.51 8.77 11.91L8.77 11.91L8.77 11.91Q8.62 12.31 8.62 12.63L8.62 12.63L8.62 12.63Q8.62 12.99 8.85 13.35L8.85 13.35L8.85 13.35Q9.07 13.71 9.63 13.71L9.63 13.71ZM15.79 14.14L15.79 14.14Q15.08 14.14 14.53 13.75L14.53 13.75L14.53 13.75Q14.50 13.73 14.49 13.72L14.49 13.72L14.49 13.72Q14.48 13.71 14.45 13.71L14.45 13.71L14.35 13.75L14 14.03L14 14.03Q13.94 14.07 13.90 14.07L13.90 14.07L13.82 14.06L13.82 14.06Q13.73 14.01 13.73 13.93L13.73 13.93L13.73 12.49L13.73 12.49Q13.73 12.35 13.90 12.35L13.90 12.35L13.90 12.35Q13.96 12.35 13.99 12.38L13.99 12.38L13.99 12.38Q14.03 12.42 14.03 12.43L14.03 12.43L14.03 12.43Q14.31 13.10 14.80 13.47L14.80 13.47L14.80 13.47Q15.30 13.83 15.86 13.83L15.86 13.83L15.86 13.83Q16.35 13.83 16.78 13.57L16.78 13.57L16.78 13.57Q17.21 13.31 17.21 12.80L17.21 12.80L17.21 12.80Q17.21 12.29 16.83 12.05L16.83 12.05L16.83 12.05Q16.45 11.82 15.78 11.63L15.78 11.63L15.44 11.54L15.44 11.54Q14.76 11.30 14.27 10.93L14.27 10.93L14.27 10.93Q13.78 10.57 13.78 9.83L13.78 9.83L13.78 9.83Q13.78 9.09 14.34 8.67L14.34 8.67L14.34 8.67Q14.91 8.25 15.64 8.25L15.64 8.25L15.64 8.25Q15.90 8.25 16.11 8.31L16.11 8.31L16.11 8.31Q16.32 8.37 16.76 8.55L16.76 8.55L16.76 8.55Q16.77 8.55 16.78 8.57L16.78 8.57L16.78 8.57Q16.79 8.58 16.80 8.58L16.80 8.58L16.80 8.58Q16.86 8.58 16.90 8.54L16.90 8.54L17.04 8.41L17.04 8.41Q17.05 8.40 17.07 8.39L17.07 8.39L17.07 8.39Q17.09 8.37 17.12 8.37L17.12 8.37L17.25 8.37L17.25 8.37Q17.35 8.37 17.35 8.50L17.35 8.50L17.42 9.73L17.42 9.73Q17.42 9.87 17.30 9.87L17.30 9.87L17.30 9.87Q17.28 9.87 17.24 9.85L17.24 9.85L17.24 9.85Q17.21 9.83 17.19 9.80L17.19 9.80L17.19 9.80Q16.87 9.24 16.49 8.88L16.49 8.88L16.49 8.88Q16.11 8.51 15.57 8.51L15.57 8.51L15.57 8.51Q15.13 8.51 14.77 8.75L14.77 8.75L14.77 8.75Q14.41 8.99 14.41 9.45L14.41 9.45L14.41 9.45Q14.41 9.86 14.71 10.05L14.71 10.05L14.71 10.05Q15.01 10.25 15.72 10.49L15.72 10.49L15.72 10.49Q15.85 10.53 16.48 10.72L16.48 10.72L16.48 10.72Q17.11 10.91 17.46 11.31L17.46 11.31L17.46 11.31Q17.82 11.72 17.82 12.35L17.82 12.35L17.82 12.35Q17.82 12.96 17.51 13.37L17.51 13.37L17.51 13.37Q17.21 13.78 16.74 13.96L16.74 13.96L16.74 13.96Q16.28 14.14 15.79 14.14L15.79 14.14ZM20.64 14.14L20.64 14.14Q20.20 14.14 19.79 13.93L19.79 13.93L19.79 13.93Q19.38 13.72 19.38 13.10L19.38 13.10L19.38 8.72L18.61 8.72L18.61 8.72Q18.55 8.72 18.52 8.68L18.52 8.68L18.52 8.68Q18.48 8.64 18.48 8.58L18.48 8.58L18.48 8.58Q18.48 8.47 18.59 8.47L18.59 8.47L18.59 8.47Q19.17 8.33 19.54 7.85L19.54 7.85L19.54 7.85Q19.92 7.36 19.92 6.38L19.92 6.38L19.92 6.38Q19.92 6.31 19.97 6.26L19.97 6.26L19.97 6.26Q20.02 6.20 20.09 6.20L20.09 6.20L20.22 6.20L20.22 6.20Q20.29 6.20 20.33 6.26L20.33 6.26L20.33 6.26Q20.37 6.31 20.37 6.38L20.37 6.38L20.37 8.36L21.98 8.36L21.98 8.36Q22.08 8.36 22.08 8.50L22.08 8.50L22.08 8.58L22.08 8.58Q22.08 8.72 21.98 8.72L21.98 8.72L20.37 8.72L20.37 12.74L20.37 12.74Q20.37 13.26 20.59 13.43L20.59 13.43L20.59 13.43Q20.80 13.59 21.13 13.59L21.13 13.59L21.13 13.59Q21.64 13.59 22.06 12.94L22.06 12.94L22.06 12.94Q22.13 12.81 22.18 12.81L22.18 12.81L22.18 12.81Q22.36 12.81 22.36 12.96L22.36 12.96L22.36 12.96Q22.36 13.03 22.32 13.10L22.32 13.10L22.32 13.10Q21.98 13.73 21.55 13.94L21.55 13.94L21.55 13.94Q21.11 14.14 20.64 14.14L20.64 14.14ZM24.71 14.20L24.71 14.20Q23.91 14.20 23.50 13.75L23.50 13.75L23.50 13.75Q23.09 13.30 23.09 12.67L23.09 12.67L23.09 12.67Q23.09 12.00 23.57 11.56L23.57 11.56L23.57 11.56Q24.05 11.13 24.79 10.93L24.79 10.93L24.79 10.93Q25.51 10.71 26.32 10.71L26.32 10.71L26.52 10.72L26.52 10.46L26.52 10.46Q26.52 9.88 26.45 9.49L26.45 9.49L26.45 9.49Q26.38 9.10 26.10 8.83L26.10 8.83L26.10 8.83Q25.82 8.55 25.24 8.55L25.24 8.55L25.24 8.55Q24.82 8.55 24.70 8.67L24.70 8.67L24.70 8.67Q24.57 8.78 24.57 8.90L24.57 8.90L24.57 8.90Q24.57 8.97 24.64 9.13L24.64 9.13L24.64 9.13Q24.71 9.28 24.71 9.35L24.71 9.35L24.71 9.35Q24.71 9.66 24.54 9.81L24.54 9.81L24.54 9.81Q24.39 10.00 24.11 10.00L24.11 10.00L24.11 10.00Q23.86 10.00 23.66 9.80L23.66 9.80L23.66 9.80Q23.56 9.69 23.52 9.59L23.52 9.59L23.52 9.59Q23.48 9.49 23.48 9.37L23.48 9.37L23.48 9.37Q23.48 9.10 23.66 8.88L23.66 8.88L23.66 8.88Q23.95 8.54 24.44 8.43L24.44 8.43L24.44 8.43Q24.92 8.32 25.35 8.32L25.35 8.32L25.35 8.32Q26.03 8.32 26.47 8.47L26.47 8.47L26.47 8.47Q26.92 8.62 27.19 8.96L27.19 8.96L27.19 8.96Q27.41 9.25 27.46 9.59L27.46 9.59L27.46 9.59Q27.51 9.93 27.51 10.72L27.51 10.72L27.51 12.89L27.51 12.89Q27.51 13.66 27.92 13.66L27.92 13.66L27.92 13.66Q28.14 13.66 28.36 13.44L28.36 13.44L28.36 13.44Q28.39 13.43 28.41 13.41L28.41 13.41L28.41 13.41Q28.42 13.38 28.45 13.38L28.45 13.38L28.45 13.38Q28.53 13.38 28.53 13.48L28.53 13.48L28.53 13.48Q28.53 13.68 28.22 13.91L28.22 13.91L28.22 13.91Q27.90 14.14 27.61 14.14L27.61 14.14L27.61 14.14Q27.24 14.14 26.97 13.87L26.97 13.87L26.97 13.87Q26.70 13.59 26.56 13.19L26.56 13.19L26.56 13.19Q26.52 13.19 26.49 13.17L26.49 13.17L26.49 13.17Q26.47 13.16 26.46 13.19L26.46 13.19L26.46 13.19Q25.86 14.20 24.71 14.20L24.71 14.20ZM25.12 13.71L25.12 13.71Q25.49 13.71 25.82 13.51L25.82 13.51L25.82 13.51Q26.14 13.31 26.33 13.03L26.33 13.03L26.33 13.03Q26.52 12.75 26.52 12.52L26.52 12.52L26.52 10.99L26.52 10.99Q26.11 10.99 25.65 11.05L25.65 11.05L25.65 11.05Q25.19 11.12 24.88 11.27L24.88 11.27L24.88 11.27Q24.40 11.51 24.25 11.91L24.25 11.91L24.25 11.91Q24.11 12.31 24.11 12.63L24.11 12.63L24.11 12.63Q24.11 12.99 24.33 13.35L24.33 13.35L24.33 13.35Q24.56 13.71 25.12 13.71L25.12 13.71ZM29.43 14.01L29.43 14.01Q29.33 14.01 29.27 13.96L29.27 13.96L29.27 13.96Q29.22 13.90 29.22 13.82L29.22 13.82L29.22 13.82Q29.22 13.73 29.27 13.68L29.27 13.68L29.27 13.68Q29.33 13.62 29.43 13.62L29.43 13.62L29.43 13.62Q29.90 13.62 30.25 13.28L30.25 13.28L30.25 13.28Q30.60 12.94 30.60 12.45L30.60 12.45L30.60 5.29L30.60 5.29Q30.60 5.10 30.48 4.96L30.48 4.96L30.48 4.96Q30.35 4.82 30.16 4.82L30.16 4.82L29.43 4.82L29.43 4.82Q29.34 4.82 29.28 4.75L29.28 4.75L29.28 4.75Q29.22 4.69 29.22 4.61L29.22 4.61L29.22 4.61Q29.22 4.52 29.27 4.47L29.27 4.47L29.27 4.47Q29.33 4.41 29.43 4.41L29.43 4.41L32.03 4.41L32.03 4.41Q32.16 4.41 32.20 4.52L32.20 4.52L34.82 11.89L37.35 4.52L37.35 4.52Q37.39 4.41 37.52 4.41L37.52 4.41L39.90 4.41L39.90 4.41Q39.98 4.41 40.03 4.47L40.03 4.47L40.03 4.47Q40.08 4.52 40.08 4.61L40.08 4.61L40.08 4.61Q40.08 4.69 40.03 4.75L40.03 4.75L40.03 4.75Q39.98 4.82 39.90 4.82L39.90 4.82L39.27 4.82L39.27 4.82Q39.12 4.82 38.99 4.93L38.99 4.93L38.99 4.93Q38.86 5.04 38.86 5.19L38.86 5.19L38.86 13.24L38.86 13.24Q38.86 13.38 38.99 13.50L38.99 13.50L38.99 13.50Q39.12 13.62 39.27 13.62L39.27 13.62L39.90 13.62L39.90 13.62Q39.98 13.62 40.03 13.68L40.03 13.68L40.03 13.68Q40.08 13.73 40.08 13.82L40.08 13.82L40.08 13.82Q40.08 13.90 40.03 13.96L40.03 13.96L40.03 13.96Q39.98 14.01 39.90 14.01L39.90 14.01L36.48 14.01L36.48 14.01Q36.41 14.01 36.36 13.96L36.36 13.96L36.36 13.96Q36.32 13.90 36.32 13.82L36.32 13.82L36.32 13.82Q36.32 13.73 36.36 13.68L36.36 13.68L36.36 13.68Q36.41 13.62 36.48 13.62L36.48 13.62L37.11 13.62L37.11 13.62Q37.25 13.62 37.37 13.51L37.37 13.51L37.37 13.51Q37.48 13.40 37.48 13.24L37.48 13.24L37.48 5.33L34.52 13.90L34.52 13.90Q34.48 14.01 34.36 14.01L34.36 14.01L34.30 14.01L34.30 14.01Q34.17 14.01 34.13 13.90L34.13 13.90L30.98 5.11L30.98 12.45L30.98 12.45Q30.98 12.94 31.32 13.28L31.32 13.28L31.32 13.28Q31.67 13.62 32.16 13.62L32.16 13.62L32.16 13.62Q32.24 13.62 32.31 13.68L32.31 13.68L32.31 13.68Q32.38 13.73 32.38 13.82L32.38 13.82L32.38 13.82Q32.38 13.90 32.31 13.96L32.31 13.96L32.31 13.96Q32.24 14.01 32.16 14.01L32.16 14.01L29.43 14.01ZM43.81 14.14L43.81 14.14Q43.06 14.14 42.43 13.74L42.43 13.74L42.43 13.74Q41.79 13.34 41.42 12.67L41.42 12.67L41.42 12.67Q41.05 12.00 41.05 11.21L41.05 11.21L41.05 11.21Q41.05 10.42 41.42 9.72L41.42 9.72L41.42 9.72Q41.79 9.03 42.43 8.62L42.43 8.62L42.43 8.62Q43.06 8.22 43.81 8.22L43.81 8.22L43.81 8.22Q44.55 8.22 45.18 8.62L45.18 8.62L45.18 8.62Q45.82 9.03 46.19 9.72L46.19 9.72L46.19 9.72Q46.56 10.42 46.56 11.21L46.56 11.21L46.56 11.21Q46.56 12.00 46.19 12.67L46.19 12.67L46.19 12.67Q45.82 13.34 45.18 13.74L45.18 13.74L45.18 13.74Q44.55 14.14 43.81 14.14L43.81 14.14ZM43.81 13.89L43.81 13.89Q44.51 13.89 44.91 13.15L44.91 13.15L44.91 13.15Q45.32 12.42 45.32 11.21L45.32 11.21L45.32 11.21Q45.32 10.00 44.91 9.24L44.91 9.24L44.91 9.24Q44.51 8.48 43.81 8.48L43.81 8.48L43.81 8.48Q43.12 8.48 42.71 9.24L42.71 9.24L42.71 9.24Q42.31 10.00 42.31 11.21L42.31 11.21L42.31 11.21Q42.31 12.42 42.71 13.15L42.71 13.15L42.71 13.15Q43.12 13.89 43.81 13.89L43.81 13.89ZM43.89 7.60L43.89 7.60Q43.85 7.56 42.41 6.43L42.41 6.43L42.41 6.43Q42.01 6.13 41.94 6.06L41.94 6.06L41.94 6.06Q41.66 5.84 41.57 5.69L41.57 5.69L41.57 5.69Q41.47 5.54 41.47 5.31L41.47 5.31L41.47 5.31Q41.47 5.12 41.62 4.96L41.62 4.96L41.62 4.96Q41.78 4.80 42 4.80L42 4.80L42 4.80Q42.25 4.80 42.43 4.94L42.43 4.94L42.43 4.94Q42.62 5.07 42.81 5.39L42.81 5.39L42.81 5.39Q43.29 6.23 44.07 7.43L44.07 7.43L43.89 7.60Z"></path></g><!----><!----></svg>